<svg width="250" height="40" viewBox="0 0 250 40" fill="none" xmlns="http://www.w3.org/2000/svg">
<g clip-path="url(#clip0_1_18)">
<path fill-rule="evenodd" clip-rule="evenodd" d="M22.1104 17.7268H26.5324H39.7985V22.1584H26.5324V35.4536H30.9544V31.0219V26.5903H35.3766H39.7985V31.0219H35.3766V35.4536H39.7985V39.8854H22.1104V39.8852V35.4536V22.1584V17.7268Z" fill="#0A7F2E"/>
<path fill-rule="evenodd" clip-rule="evenodd" d="M39.7985 0V4.43164L0 4.43164L0 0L39.7985 0Z" fill="#0A7F2E"/>
<path fill-rule="evenodd" clip-rule="evenodd" d="M39.7985 8.86353V13.2952L22.1104 13.2952V8.86353H39.7985ZM17.6881 13.2952V39.8852H13.2661L13.2661 13.2952H8.84407L8.84407 39.8852H4.42204L4.42204 13.2952H0L0 8.86353H4.42204H8.84407H13.2661H17.6881V13.2952Z" fill="#0A7F2E"/>
<path d="M53.1154 15.2032V2.38884H47.0303V0.723121L60.9965 0.723121V2.38884L54.9113 2.38884V15.2032H53.1154ZM61.7737 15.2032V0.723121L73.1398 0.723121V2.38884H63.5698V6.63331H69.36V8.29904H63.5698V13.5377L73.7295 13.5377V15.2032L61.7737 15.2032ZM87.9324 10.5826L89.38 11.6571C88.7187 12.9152 87.8074 13.8868 86.6546 14.5629C85.5064 15.2391 84.1974 15.5794 82.7275 15.5794C80.5651 15.5794 78.778 14.8629 77.3662 13.4347C75.9589 12.0062 75.253 10.193 75.253 7.99463C75.253 5.79163 75.9589 3.97381 77.3706 2.54556C78.787 1.11711 80.5697 0.400879 82.7231 0.400879C84.0589 0.400879 85.2787 0.691859 86.3777 1.27843C87.4767 1.865 88.3703 2.70227 89.0582 3.78583L87.5527 4.86037C87.1013 3.99625 86.4447 3.31569 85.5914 2.82752C84.738 2.33955 83.7819 2.09325 82.7275 2.09325C81.1058 2.09325 79.761 2.65297 78.6976 3.7678C77.6344 4.88282 77.1027 6.29303 77.1027 7.99463C77.1027 9.70043 77.6344 11.1108 78.6976 12.2213C79.761 13.3317 81.1058 13.8868 82.7275 13.8868C83.8623 13.8868 84.8675 13.6048 85.7478 13.0451C86.6278 12.4854 87.3561 11.666 87.9324 10.5826ZM92.5966 15.2032V0.723121L94.4195 0.723121V6.44534L102.944 6.44534V0.723121L104.74 0.723121V15.2032H102.944V8.11086L94.4195 8.11086V15.2032H92.5966ZM109.114 15.2032V0.723121H110.057L119.434 11.5451V0.723121H121.23V15.2032H120.314L110.91 4.38122V15.2032H109.114ZM131.868 13.8868C133.49 13.8868 134.835 13.3317 135.902 12.2213C136.966 11.1108 137.497 9.70043 137.497 7.99463C137.497 6.28422 136.966 4.86939 135.907 3.75898C134.848 2.64856 133.499 2.09325 131.868 2.09325C130.246 2.09325 128.901 2.65297 127.834 3.7678C126.77 4.88282 126.239 6.29303 126.239 7.99463C126.239 9.70043 126.77 11.1108 127.834 12.2213C128.901 13.3317 130.246 13.8868 131.868 13.8868ZM131.863 15.5794C129.697 15.5794 127.909 14.8629 126.502 13.4347C125.095 12.0062 124.389 10.193 124.389 7.99463C124.389 5.79163 125.095 3.97381 126.511 2.54556C127.923 1.11711 129.706 0.400879 131.863 0.400879C134.026 0.400879 135.817 1.11711 137.242 2.55437C138.663 3.98723 139.374 5.80065 139.374 7.99463C139.374 10.193 138.663 12.0062 137.247 13.4347C135.831 14.8629 134.035 15.5794 131.863 15.5794ZM154.059 10.5826L155.507 11.6571C154.845 12.9152 153.934 13.8868 152.781 14.5629C151.633 15.2391 150.324 15.5794 148.854 15.5794C146.692 15.5794 144.905 14.8629 143.493 13.4347C142.086 12.0062 141.38 10.193 141.38 7.99463C141.38 5.79163 142.086 3.97381 143.497 2.54556C144.914 1.11711 146.696 0.400879 148.85 0.400879C150.186 0.400879 151.405 0.691859 152.504 1.27843C153.603 1.865 154.497 2.70227 155.185 3.78583L153.679 4.86037C153.228 3.99625 152.571 3.31569 151.718 2.82752C150.865 2.33955 149.909 2.09325 148.854 2.09325C147.233 2.09325 145.888 2.65297 144.824 3.7678C143.761 4.88282 143.229 6.29303 143.229 7.99463C143.229 9.70043 143.761 11.1108 144.824 12.2213C145.888 13.3317 147.233 13.8868 148.854 13.8868C149.989 13.8868 150.994 13.6048 151.875 13.0451C152.755 12.4854 153.483 11.666 154.059 10.5826ZM165.05 13.8868C166.672 13.8868 168.016 13.3317 169.084 12.2213C170.147 11.1108 170.679 9.70043 170.679 7.99463C170.679 6.28422 170.147 4.86939 169.089 3.75898C168.03 2.64856 166.68 2.09325 165.05 2.09325C163.428 2.09325 162.083 2.65297 161.015 3.7678C159.952 4.88282 159.42 6.29303 159.42 7.99463C159.42 9.70043 159.952 11.1108 161.015 12.2213C162.083 13.3317 163.428 13.8868 165.05 13.8868ZM165.045 15.5794C162.878 15.5794 161.091 14.8629 159.684 13.4347C158.277 12.0062 157.571 10.193 157.571 7.99463C157.571 5.79163 158.277 3.97381 159.693 2.54556C161.105 1.11711 162.887 0.400879 165.045 0.400879C167.208 0.400879 168.999 1.11711 170.424 2.55437C171.845 3.98723 172.556 5.80065 172.556 7.99463C172.556 10.193 171.845 12.0062 170.429 13.4347C169.013 14.8629 167.217 15.5794 165.045 15.5794ZM177.43 7.17078H183.81C184.717 7.17078 185.405 6.96918 185.869 6.56618C186.339 6.16778 186.571 5.5768 186.571 4.79765C186.571 4.04094 186.339 3.44555 185.869 3.02451C185.405 2.59926 184.748 2.38884 183.899 2.38884H177.43V7.17078ZM175.634 15.2032V0.723121L183.926 0.723121C185.338 0.723121 186.441 1.08144 187.245 1.79326C188.045 2.50528 188.447 3.49024 188.447 4.74835C188.447 5.79604 188.135 6.69163 187.509 7.43932C186.879 8.18701 186.053 8.65274 185.025 8.83631L188.635 15.2032H186.651L183.037 8.86316L177.43 8.86316V15.2032H175.634ZM193.438 7.17078H199.818C200.725 7.17078 201.413 6.96918 201.877 6.56618C202.346 6.16778 202.579 5.5768 202.579 4.79765C202.579 4.04094 202.346 3.44555 201.877 3.02451C201.413 2.59926 200.756 2.38884 199.907 2.38884L193.438 2.38884V7.17078ZM191.642 15.2032V0.723121L199.934 0.723121C201.337 0.723121 202.44 1.07242 203.244 1.77101C204.053 2.46941 204.455 3.42752 204.455 4.64094C204.455 5.89905 204.067 6.91988 203.285 7.69463C202.507 8.47358 201.466 8.86316 200.171 8.86316H193.438V15.2032H191.642Z" fill="#0A7F2E" stroke="#0A7F2E" stroke-width="0.0762" stroke-miterlimit="22.9256"/>
<path d="M51.0014 27.5311H50.2189L48.8286 25.9657L50.2189 24.3625H51.0094L49.5824 25.9657L51.0014 27.5311ZM49.1921 27.5311H48.4206L47.0303 25.9657L48.4206 24.3625H49.1921L47.7825 25.9657L49.1921 27.5311Z" fill="#0A7F2E"/>
<path d="M57.4544 28.4631H56.5894L55.8831 26.5894H53.0546L52.3897 28.4631H51.5215L54.0784 21.7808H54.8879L57.4544 28.4631ZM55.626 25.8864L54.5799 23.0391C54.5466 22.9451 54.5118 22.7956 54.4784 22.592H54.4594C54.4292 22.7814 54.3928 22.9293 54.353 23.0391L53.315 25.8864H55.626Z" fill="#0A7F2E"/>
<path d="M63.0385 28.4631H62.0861L60.5513 25.9054C60.5053 25.8274 60.453 25.716 60.3974 25.5745H60.3784C60.3482 25.6461 60.2958 25.7559 60.2212 25.9054L58.6403 28.4631H57.6816L59.9133 25.1036L57.8594 21.7808H58.8164L60.1784 24.1286C60.2688 24.2846 60.3482 24.4403 60.4164 24.5946H60.4356C60.5339 24.3894 60.6211 24.2288 60.6957 24.111L62.1131 21.7808H63.0115L60.9133 25.0942L63.0385 28.4631Z" fill="#0A7F2E"/>
<path d="M64.0527 28.4631V21.7808H65.9496C66.5257 21.7808 66.9845 21.9224 67.3208 22.204C67.659 22.487 67.8287 22.8561 67.8287 23.3094C67.8287 23.688 67.7256 24.0172 67.521 24.2972C67.3162 24.5771 67.0353 24.7759 66.6749 24.8938V24.9128C67.1241 24.9653 67.4844 25.1355 67.7542 25.4218C68.0241 25.7096 68.1589 26.0835 68.1589 26.5433C68.1589 27.1142 67.9541 27.5771 67.5448 27.9318C67.1353 28.2865 66.6193 28.4631 65.9956 28.4631H64.0527ZM64.8338 22.4886V24.6471H65.6337C66.0606 24.6471 66.3972 24.5437 66.6431 24.3371C66.8877 24.1302 67.0099 23.8391 67.0099 23.4621C67.0099 22.8132 66.5845 22.4886 65.7305 22.4886H64.8338ZM64.8338 25.3503V27.7553H65.894C66.3528 27.7553 66.7083 27.6455 66.9607 27.4292C67.2146 27.2112 67.34 26.9122 67.34 26.5336C67.34 25.7447 66.8035 25.3503 65.7305 25.3503H64.8338Z" fill="#0A7F2E"/>
<path d="M72.1983 28.5745C71.2525 28.5745 70.4954 28.2627 69.9271 27.6377C69.3588 27.014 69.0732 26.2012 69.0732 25.2008C69.0732 24.1255 69.3636 23.2682 69.9429 22.6287C70.5224 21.9892 71.3127 21.668 72.3111 21.668C73.2317 21.668 73.9728 21.9796 74.5347 22.6C75.0982 23.2219 75.3791 24.0347 75.3791 25.0385C75.3791 26.1281 75.0902 26.9902 74.5141 27.6249C73.938 28.2579 73.1665 28.5745 72.1983 28.5745ZM72.2539 22.3774C71.554 22.3774 70.9857 22.6303 70.5478 23.1361C70.1113 23.6435 69.8921 24.3084 69.8921 25.1307C69.8921 25.9547 70.1049 26.6164 70.5318 27.119C70.9571 27.62 71.5142 27.8713 72.1983 27.8713C72.93 27.8713 73.5063 27.6329 73.9284 27.1541C74.3505 26.6752 74.5601 26.0056 74.5601 25.1451C74.5601 24.2623 74.3569 23.5814 73.9474 23.0994C73.5379 22.6175 72.973 22.3774 72.2539 22.3774Z" fill="#0A7F2E"/>
<path d="M81.4702 28.4631H80.5399L79.4227 26.5894C79.3212 26.416 79.2226 26.2679 79.1258 26.1439C79.029 26.0214 78.9306 25.9212 78.8307 25.8449C78.7291 25.7669 78.6211 25.7096 78.5053 25.6747C78.3893 25.6381 78.2578 25.6206 78.1116 25.6206H77.4705V28.4631H76.6895V21.7808H78.6799C78.9702 21.7808 79.2402 21.8174 79.4861 21.8906C79.7321 21.9637 79.9465 22.0735 80.1274 22.223C80.31 22.3725 80.4512 22.5587 80.5527 22.7798C80.6559 23.0024 80.7067 23.2617 80.7067 23.5607C80.7067 23.793 80.6717 24.0078 80.6019 24.2018C80.5322 24.3958 80.4338 24.5691 80.3052 24.7202C80.1766 24.8729 80.021 25.0034 79.8401 25.11C79.6575 25.2166 79.4543 25.301 79.2274 25.3597V25.3773C79.3402 25.4282 79.437 25.4837 79.5195 25.5475C79.6005 25.6126 79.6797 25.6874 79.7529 25.7749C79.8275 25.8609 79.9021 25.9595 79.9751 26.0707C80.048 26.1805 80.129 26.3078 80.2178 26.4541L81.4702 28.4631ZM77.4705 22.4886V24.9128H78.5307C78.7259 24.9128 78.9068 24.8825 79.0718 24.8236C79.2386 24.7649 79.3814 24.6805 79.5019 24.5691C79.6227 24.4595 79.7179 24.3242 79.7861 24.1635C79.8545 24.0046 79.8877 23.8248 79.8877 23.626C79.8877 23.2681 79.7735 22.9898 79.5417 22.7894C79.3116 22.5888 78.9766 22.4886 78.5401 22.4886H77.4705Z" fill="#0A7F2E"/>
<path d="M84.9786 28.5745C84.0327 28.5745 83.2757 28.2627 82.7074 27.6377C82.1391 27.014 81.8535 26.2012 81.8535 25.2008C81.8535 24.1255 82.1439 23.2682 82.7232 22.6287C83.3027 21.9892 84.0929 21.668 85.0913 21.668C86.012 21.668 86.753 21.9796 87.3149 22.6C87.8784 23.2219 88.1594 24.0347 88.1594 25.0385C88.1594 26.1281 87.8704 26.9902 87.2944 27.6249C86.7183 28.2579 85.9468 28.5745 84.9786 28.5745ZM85.0341 22.3774C84.3343 22.3774 83.766 22.6303 83.3281 23.1361C82.8915 23.6435 82.6724 24.3084 82.6724 25.1307C82.6724 25.9547 82.8851 26.6164 83.3121 27.119C83.7374 27.62 84.2945 27.8713 84.9786 27.8713C85.7102 27.8713 86.2865 27.6329 86.7087 27.1541C87.1308 26.6752 87.3403 26.0056 87.3403 25.1451C87.3403 24.2623 87.1372 23.5814 86.7276 23.0994C86.3181 22.6175 85.7532 22.3774 85.0341 22.3774Z" fill="#0A7F2E"/>
<path d="M92.9862 22.4886H91.0609V28.4631H90.28V22.4886H88.3594V21.7808H92.9862V22.4886Z" fill="#0A7F2E"/>
<path d="M100.587 22.4886H98.6615V28.4631H97.8806V22.4886H95.96V21.7808H100.587V22.4886Z" fill="#0A7F2E"/>
<path d="M105.167 28.4631H101.634V21.7808H105.019V22.4886H102.415V24.7124H104.824V25.4154H102.415V27.7553H105.167V28.4631Z" fill="#0A7F2E"/>
<path d="M111.054 28.4631H110.102L108.567 25.9054C108.521 25.8274 108.469 25.716 108.413 25.5745H108.394C108.364 25.6461 108.311 25.7559 108.237 25.9054L106.656 28.4631H105.697L107.929 25.1036L105.875 21.7808H106.832L108.194 24.1286C108.284 24.2846 108.364 24.4403 108.432 24.5946H108.451C108.55 24.3894 108.637 24.2288 108.711 24.111L110.129 21.7808H111.027L108.929 25.0942L111.054 28.4631Z" fill="#0A7F2E"/>
<path d="M117.443 28.4631H116.485L113.053 23.1361C112.966 23.0024 112.894 22.8625 112.839 22.7176H112.812C112.836 22.8609 112.848 23.1663 112.848 23.6355V28.4631H112.067V21.7808H113.082L116.42 27.0236C116.559 27.2399 116.65 27.3894 116.689 27.4705H116.708C116.677 27.2781 116.661 26.9505 116.661 26.4876V21.7808H117.443V28.4631Z" fill="#0A7F2E"/>
<path d="M121.879 28.5745C120.933 28.5745 120.176 28.2627 119.608 27.6377C119.039 27.014 118.754 26.2012 118.754 25.2008C118.754 24.1255 119.044 23.2682 119.624 22.6287C120.203 21.9892 120.993 21.668 121.992 21.668C122.912 21.668 123.653 21.9796 124.215 22.6C124.779 23.2219 125.06 24.0347 125.06 25.0385C125.06 26.1281 124.771 26.9902 124.195 27.6249C123.619 28.2579 122.847 28.5745 121.879 28.5745ZM121.935 22.3774C121.235 22.3774 120.666 22.6303 120.228 23.1361C119.792 23.6435 119.573 24.3084 119.573 25.1307C119.573 25.9547 119.786 26.6164 120.212 27.119C120.638 27.62 121.195 27.8713 121.879 27.8713C122.611 27.8713 123.187 27.6329 123.609 27.1541C124.031 26.6752 124.241 26.0056 124.241 25.1451C124.241 24.2623 124.038 23.5814 123.628 23.0994C123.219 22.6175 122.654 22.3774 121.935 22.3774Z" fill="#0A7F2E"/>
<path d="M129.83 28.4631H126.371V21.7808H127.152V27.7553H129.83V28.4631Z" fill="#0A7F2E"/>
<path d="M133.214 28.5745C132.268 28.5745 131.511 28.2627 130.943 27.6377C130.374 27.014 130.089 26.2012 130.089 25.2008C130.089 24.1255 130.379 23.2682 130.959 22.6287C131.538 21.9892 132.328 21.668 133.327 21.668C134.247 21.668 134.988 21.9796 135.55 22.6C136.114 23.2219 136.395 24.0347 136.395 25.0385C136.395 26.1281 136.106 26.9902 135.53 27.6249C134.954 28.2579 134.182 28.5745 133.214 28.5745ZM133.27 22.3774C132.57 22.3774 132.001 22.6303 131.563 23.1361C131.127 23.6435 130.908 24.3084 130.908 25.1307C130.908 25.9547 131.12 26.6164 131.547 27.119C131.973 27.62 132.53 27.8713 133.214 27.8713C133.946 27.8713 134.522 27.6329 134.944 27.1541C135.366 26.6752 135.576 26.0056 135.576 25.1451C135.576 24.2623 135.373 23.5814 134.963 23.0994C134.553 22.6175 133.989 22.3774 133.27 22.3774Z" fill="#0A7F2E"/>
<path d="M142.69 28.0066C142.022 28.3852 141.278 28.5745 140.459 28.5745C139.508 28.5745 138.738 28.2675 138.151 27.6519C137.562 27.0379 137.269 26.2235 137.269 25.2102C137.269 24.1764 137.596 23.3269 138.248 22.6636C138.9 22.0004 139.727 21.668 140.729 21.668C141.454 21.668 142.063 21.7872 142.555 22.0227V22.8896C142.017 22.5475 141.378 22.3774 140.64 22.3774C139.894 22.3774 139.281 22.6351 138.803 23.1503C138.326 23.6658 138.087 24.3339 138.087 25.1545C138.087 25.9992 138.31 26.6641 138.752 27.1461C139.195 27.6297 139.797 27.8713 140.557 27.8713C141.078 27.8713 141.529 27.7663 141.91 27.5597V25.6858H140.449V24.978H142.69V28.0066Z" fill="#0A7F2E"/>
<path d="M145.02 28.4631H144.239V21.7808H145.02V28.4631Z" fill="#0A7F2E"/>
<path d="M151.107 21.7808L148.909 25.9928V28.4631H148.126V26.012L145.983 21.7808H146.871L148.364 24.7998C148.382 24.8381 148.437 24.9747 148.526 25.2102H148.54C148.572 25.1052 148.631 24.9685 148.717 24.7998L150.28 21.7808H151.107Z" fill="#0A7F2E"/>
<path d="M156.456 28.4631H155.591L154.885 26.5894H152.056L151.391 28.4631H150.523L153.08 21.7808H153.889L156.456 28.4631ZM154.627 25.8864L153.581 23.0391C153.548 22.9451 153.513 22.7956 153.48 22.592H153.461C153.431 22.7814 153.394 22.9293 153.354 23.0391L152.316 25.8864H154.627Z" fill="#0A7F2E"/>
<path d="M160.895 28.4631H157.437V21.7808H158.218V27.7553H160.895V28.4631Z" fill="#0A7F2E"/>
<path d="M167.36 28.4631H166.495L165.789 26.5894H162.96L162.296 28.4631H161.427L163.984 21.7808H164.794L167.36 28.4631ZM165.532 25.8864L164.486 23.0391C164.452 22.9451 164.418 22.7956 164.384 22.592H164.365C164.335 22.7814 164.299 22.9293 164.259 23.0391L163.221 25.8864H165.532Z" fill="#0A7F2E"/>
<path d="M173.121 28.4631H172.191L171.074 26.5894C170.972 26.416 170.873 26.2679 170.777 26.1439C170.68 26.0214 170.582 25.9212 170.482 25.8449C170.38 25.7669 170.272 25.7096 170.156 25.6747C170.04 25.6381 169.909 25.6206 169.762 25.6206H169.121V28.4631H168.34V21.7808H170.331C170.621 21.7808 170.891 21.8174 171.137 21.8906C171.383 21.9637 171.597 22.0735 171.778 22.223C171.961 22.3725 172.102 22.5587 172.204 22.7798C172.307 23.0024 172.358 23.2617 172.358 23.5607C172.358 23.793 172.323 24.0078 172.253 24.2018C172.183 24.3958 172.085 24.5691 171.956 24.7202C171.828 24.8729 171.672 25.0034 171.491 25.11C171.308 25.2166 171.105 25.301 170.878 25.3597V25.3773C170.991 25.4282 171.088 25.4837 171.17 25.5475C171.251 25.6126 171.331 25.6874 171.404 25.7749C171.478 25.8609 171.553 25.9595 171.626 26.0707C171.699 26.1805 171.78 26.3078 171.869 26.4541L173.121 28.4631ZM169.121 22.4886V24.9128H170.182C170.377 24.9128 170.558 24.8825 170.723 24.8236C170.89 24.7649 171.032 24.6805 171.153 24.5691C171.274 24.4595 171.369 24.3242 171.437 24.1635C171.505 24.0046 171.539 23.8248 171.539 23.626C171.539 23.2681 171.424 22.9898 171.193 22.7894C170.962 22.5888 170.628 22.4886 170.191 22.4886H169.121Z" fill="#0A7F2E"/>
<path d="M174.818 28.4631H174.037V21.7808H174.818V28.4631Z" fill="#0A7F2E"/>
<path d="M184.138 21.7808L181.669 28.4631H180.808L178.391 21.7808H179.261L181.107 27.0793C181.165 27.2495 181.21 27.4467 181.242 27.6709H181.259C181.284 27.4849 181.335 27.2843 181.413 27.0697L183.297 21.7808H184.138Z" fill="#0A7F2E"/>
<path d="M189.699 28.4631H188.834L188.128 26.5894H185.299L184.634 28.4631H183.766L186.323 21.7808H187.133L189.699 28.4631ZM187.871 25.8864L186.825 23.0391C186.791 22.9451 186.756 22.7956 186.723 22.592H186.704C186.674 22.7814 186.637 22.9293 186.598 23.0391L185.56 25.8864H187.871Z" fill="#0A7F2E"/>
<path d="M198.452 28.4631H197.586L196.88 26.5894H194.052L193.387 28.4631H192.519L195.076 21.7808H195.885L198.452 28.4631ZM196.623 25.8864L195.577 23.0391C195.544 22.9451 195.509 22.7956 195.475 22.592H195.456C195.426 22.7814 195.39 22.9293 195.35 23.0391L194.312 25.8864H196.623Z" fill="#0A7F2E"/>
<path d="M204.035 28.4631H203.082L201.547 25.9054C201.501 25.8274 201.449 25.716 201.393 25.5745H201.374C201.344 25.6461 201.292 25.7559 201.217 25.9054L199.636 28.4631H198.678L200.909 25.1036L198.856 21.7808H199.813L201.175 24.1286C201.265 24.2846 201.344 24.4403 201.412 24.5946H201.432C201.53 24.3894 201.617 24.2288 201.692 24.111L203.109 21.7808H204.008L201.909 25.0942L204.035 28.4631Z" fill="#0A7F2E"/>
<path d="M205.049 28.4631V21.7808H206.946C207.522 21.7808 207.98 21.9224 208.317 22.204C208.655 22.487 208.825 22.8561 208.825 23.3094C208.825 23.688 208.722 24.0172 208.517 24.2972C208.312 24.5771 208.031 24.7759 207.671 24.8938V24.9128C208.12 24.9653 208.48 25.1355 208.75 25.4218C209.02 25.7096 209.155 26.0835 209.155 26.5433C209.155 27.1142 208.95 27.5771 208.541 27.9318C208.131 28.2865 207.615 28.4631 206.992 28.4631H205.049ZM205.83 22.4886V24.6471H206.63C207.057 24.6471 207.393 24.5437 207.639 24.3371C207.884 24.1302 208.006 23.8391 208.006 23.4621C208.006 22.8132 207.581 22.4886 206.727 22.4886H205.83ZM205.83 25.3503V27.7553H206.89C207.349 27.7553 207.704 27.6455 207.957 27.4292C208.211 27.2112 208.336 26.9122 208.336 26.5336C208.336 25.7447 207.8 25.3503 206.727 25.3503H205.83Z" fill="#0A7F2E"/>
<path d="M213.194 28.5745C212.248 28.5745 211.491 28.2627 210.923 27.6377C210.354 27.014 210.069 26.2012 210.069 25.2008C210.069 24.1255 210.359 23.2682 210.939 22.6287C211.518 21.9892 212.308 21.668 213.307 21.668C214.227 21.668 214.968 21.9796 215.53 22.6C216.094 23.2219 216.375 24.0347 216.375 25.0385C216.375 26.1281 216.086 26.9902 215.51 27.6249C214.934 28.2579 214.162 28.5745 213.194 28.5745ZM213.25 22.3774C212.55 22.3774 211.981 22.6303 211.543 23.1361C211.107 23.6435 210.888 24.3084 210.888 25.1307C210.888 25.9547 211.1 26.6164 211.527 27.119C211.953 27.62 212.51 27.8713 213.194 27.8713C213.926 27.8713 214.502 27.6329 214.924 27.1541C215.346 26.6752 215.556 26.0056 215.556 25.1451C215.556 24.2623 215.353 23.5814 214.943 23.0994C214.533 22.6175 213.969 22.3774 213.25 22.3774Z" fill="#0A7F2E"/>
<path d="M222.467 28.4631H221.537L220.419 26.5894C220.318 26.416 220.219 26.2679 220.122 26.1439C220.026 26.0214 219.927 25.9212 219.827 25.8449C219.726 25.7669 219.618 25.7096 219.502 25.6747C219.386 25.6381 219.254 25.6206 219.108 25.6206H218.467V28.4631H217.686V21.7808H219.677C219.967 21.7808 220.237 21.8174 220.483 21.8906C220.729 21.9637 220.943 22.0735 221.124 22.223C221.307 22.3725 221.448 22.5587 221.549 22.7798C221.653 23.0024 221.703 23.2617 221.703 23.5607C221.703 23.793 221.668 24.0078 221.599 24.2018C221.529 24.3958 221.43 24.5691 221.302 24.7202C221.173 24.8729 221.018 25.0034 220.837 25.11C220.654 25.2166 220.451 25.301 220.224 25.3597V25.3773C220.337 25.4282 220.434 25.4837 220.516 25.5475C220.597 25.6126 220.676 25.6874 220.75 25.7749C220.824 25.8609 220.899 25.9595 220.972 26.0707C221.045 26.1805 221.126 26.3078 221.214 26.4541L222.467 28.4631ZM218.467 22.4886V24.9128H219.527C219.723 24.9128 219.903 24.8825 220.068 24.8236C220.235 24.7649 220.378 24.6805 220.499 24.5691C220.619 24.4595 220.715 24.3242 220.783 24.1635C220.851 24.0046 220.884 23.8248 220.884 23.626C220.884 23.2681 220.77 22.9898 220.538 22.7894C220.308 22.5888 219.973 22.4886 219.537 22.4886H218.467Z" fill="#0A7F2E"/>
<path d="M225.976 28.5745C225.03 28.5745 224.273 28.2627 223.705 27.6377C223.137 27.014 222.851 26.2012 222.851 25.2008C222.851 24.1255 223.141 23.2682 223.721 22.6287C224.3 21.9892 225.09 21.668 226.089 21.668C227.01 21.668 227.751 21.9796 228.312 22.6C228.876 23.2219 229.157 24.0347 229.157 25.0385C229.157 26.1281 228.868 26.9902 228.292 27.6249C227.716 28.2579 226.944 28.5745 225.976 28.5745ZM226.032 22.3774C225.332 22.3774 224.764 22.6303 224.326 23.1361C223.889 23.6435 223.67 24.3084 223.67 25.1307C223.67 25.9547 223.883 26.6164 224.31 27.119C224.735 27.62 225.292 27.8713 225.976 27.8713C226.708 27.8713 227.284 27.6329 227.706 27.1541C228.128 26.6752 228.338 26.0056 228.338 25.1451C228.338 24.2623 228.135 23.5814 227.725 23.0994C227.316 22.6175 226.751 22.3774 226.032 22.3774Z" fill="#0A7F2E"/>
<path d="M233.984 22.4886H232.058V28.4631H231.278V22.4886H229.357V21.7808H233.984V22.4886Z" fill="#0A7F2E"/>
<path d="M228.246 37.3819L226.848 38.9566H226.08L227.484 37.3819L226.08 35.7881H226.848L228.246 37.3819ZM226.438 37.3819L225.048 38.9566H224.257L225.689 37.3819L224.257 35.7881H225.048L226.438 37.3819Z" fill="#0A7F2E"/>
<path d="M52.2573 39.8887H51.3271L50.2099 38.015C50.1083 37.8416 50.0097 37.6935 49.9129 37.5695C49.8161 37.447 49.7178 37.3468 49.6178 37.2705C49.5162 37.1925 49.4082 37.1352 49.2924 37.1003C49.1765 37.0636 49.0449 37.0462 48.8987 37.0462H48.2576V39.8887H47.4766V33.2063H49.467C49.7574 33.2063 50.0273 33.243 50.2733 33.3161C50.5192 33.3893 50.7336 33.4991 50.9146 33.6486C51.0971 33.7981 51.2383 33.9843 51.3399 34.2053C51.4431 34.428 51.4939 34.6873 51.4939 34.9863C51.4939 35.2185 51.4589 35.4334 51.3891 35.6274C51.3193 35.8214 51.2209 35.9947 51.0923 36.1458C50.9637 36.2985 50.8082 36.429 50.6272 36.5356C50.4446 36.6422 50.2415 36.7266 50.0145 36.7853V36.8029C50.1273 36.8538 50.2241 36.9093 50.3067 36.9731C50.3876 37.0382 50.4668 37.1129 50.54 37.2005C50.6146 37.2865 50.6892 37.3851 50.7622 37.4963C50.8352 37.6061 50.9162 37.7334 51.0049 37.8797L52.2573 39.8887ZM48.2576 33.9141V36.3384H49.3178C49.513 36.3384 49.694 36.3081 49.8589 36.2492C50.0257 36.1905 50.1685 36.1061 50.2891 35.9947C50.4098 35.8851 50.505 35.7498 50.5732 35.5891C50.6416 35.4302 50.6748 35.2504 50.6748 35.0516C50.6748 34.6937 50.5606 34.4153 50.3289 34.2149C50.0987 34.0143 49.7638 33.9141 49.3272 33.9141H48.2576Z" fill="#0A7F2E"/>
<path d="M56.706 39.8887H53.1729V33.2063H56.5585V33.9141H53.9539V36.138H56.3633V36.841H53.9539V39.1809H56.706V39.8887Z" fill="#0A7F2E"/>
<path d="M57.6768 39.6181V38.6955C57.7831 38.7893 57.9101 38.872 58.0561 38.9468C58.2037 39.0215 58.3592 39.0853 58.521 39.1362C58.6846 39.1871 58.8482 39.2267 59.0115 39.2554C59.1767 39.2825 59.3291 39.2967 59.4671 39.2967C59.948 39.2967 60.3067 39.2077 60.5449 39.0279C60.7812 38.8498 60.9004 38.5921 60.9004 38.258C60.9004 38.0766 60.8606 37.9209 60.7812 37.7873C60.7018 37.6536 60.5925 37.5311 60.4543 37.4213C60.3147 37.3101 60.1495 37.2051 59.9592 37.1033C59.767 37.0031 59.5622 36.8965 59.3417 36.7851C59.1099 36.6674 58.8926 36.5466 58.691 36.4255C58.4894 36.3047 58.3148 36.171 58.1657 36.0247C58.0163 35.8784 57.9005 35.7131 57.8147 35.5285C57.7291 35.344 57.6862 35.1277 57.6862 34.8794C57.6862 34.574 57.7529 34.3101 57.8863 34.0842C58.0195 33.8584 58.1957 33.6738 58.4116 33.5275C58.629 33.381 58.8766 33.273 59.1543 33.2013C59.4307 33.1297 59.7146 33.0933 60.002 33.0933C60.6591 33.0933 61.1384 33.1728 61.4399 33.3317V34.2131C61.0464 33.9394 60.5401 33.8027 59.9242 33.8027C59.7528 33.8027 59.583 33.8201 59.4115 33.8552C59.2417 33.8917 59.0893 33.9506 58.9559 34.0301C58.8228 34.1113 58.7148 34.2161 58.6306 34.3434C58.5464 34.4706 58.5052 34.6249 58.5052 34.8095C58.5052 34.9796 58.537 35.1277 58.6004 35.2518C58.664 35.3758 58.7576 35.4887 58.8814 35.5921C59.0051 35.6939 59.1575 35.7941 59.3353 35.8897C59.513 35.9867 59.7194 36.0917 59.9512 36.2061C60.1909 36.3253 60.4163 36.4494 60.6305 36.5798C60.8448 36.7103 61.032 36.8552 61.1924 37.0125C61.3543 37.1716 61.4813 37.3466 61.5765 37.5392C61.6717 37.7315 61.7177 37.9526 61.7177 38.2007C61.7177 38.5301 61.6543 38.8099 61.5257 39.0376C61.3971 39.2666 61.2226 39.4526 61.005 39.5943C60.786 39.7374 60.5337 39.8408 60.2495 39.9043C59.964 39.968 59.6638 39.9999 59.3465 39.9999C59.2417 39.9999 59.1115 39.9919 58.9559 39.9744C58.802 39.9568 58.6434 39.933 58.4814 39.8997C58.321 39.8678 58.1687 39.8263 58.0243 39.7786C57.8799 39.7309 57.7639 39.6768 57.6768 39.6181Z" fill="#0A7F2E"/>
<path d="M67.9273 37.1861C67.9273 39.0616 67.0829 40.0001 65.3926 40.0001C63.7753 40.0001 62.9658 39.0981 62.9658 37.2927V33.2063H63.7467V37.2418C63.7467 38.6113 64.3244 39.2969 65.4768 39.2969C66.5894 39.2969 67.1465 38.6352 67.1465 37.3119V33.2063H67.9273V37.1861Z" fill="#0A7F2E"/>
<path d="M74.3726 39.8887H73.4423L72.3251 38.015C72.2235 37.8416 72.125 37.6935 72.0282 37.5695C71.9314 37.447 71.833 37.3468 71.733 37.2705C71.6314 37.1925 71.5235 37.1352 71.4077 37.1003C71.2917 37.0636 71.1601 37.0462 71.014 37.0462H70.3729V39.8887H69.5918V33.2063H71.5823C71.8726 33.2063 72.1426 33.243 72.3885 33.3161C72.6345 33.3893 72.8488 33.4991 73.0298 33.6486C73.2124 33.7981 73.3535 33.9843 73.4551 34.2053C73.5583 34.428 73.6091 34.6873 73.6091 34.9863C73.6091 35.2185 73.5741 35.4334 73.5043 35.6274C73.4345 35.8214 73.3361 35.9947 73.2076 36.1458C73.079 36.2985 72.9234 36.429 72.7424 36.5356C72.5599 36.6422 72.3567 36.7266 72.1298 36.7853V36.8029C72.2425 36.8538 72.3393 36.9093 72.4219 36.9731C72.5029 37.0382 72.5821 37.1129 72.6553 37.2005C72.7299 37.2865 72.8044 37.3851 72.8774 37.4963C72.9504 37.6061 73.0314 37.7334 73.1202 37.8797L74.3726 39.8887ZM70.3729 33.9141V36.3384H71.4331C71.6282 36.3384 71.8092 36.3081 71.9742 36.2492C72.141 36.1905 72.2837 36.1061 72.4043 35.9947C72.5251 35.8851 72.6203 35.7498 72.6885 35.5891C72.7568 35.4302 72.79 35.2504 72.79 35.0516C72.79 34.6937 72.6759 34.4153 72.4441 34.2149C72.2139 34.0143 71.879 33.9141 71.4425 33.9141H70.3729Z" fill="#0A7F2E"/>
<path d="M74.9756 39.6181V38.6955C75.082 38.7893 75.2089 38.872 75.3549 38.9468C75.5025 39.0215 75.6581 39.0853 75.8198 39.1362C75.9834 39.1871 76.147 39.2267 76.3103 39.2554C76.4755 39.2825 76.6279 39.2967 76.7659 39.2967C77.2468 39.2967 77.6055 39.2077 77.8437 39.0279C78.08 38.8498 78.1992 38.5921 78.1992 38.258C78.1992 38.0766 78.1594 37.9209 78.08 37.7873C78.0006 37.6536 77.8913 37.5311 77.7531 37.4213C77.6135 37.3101 77.4483 37.2051 77.258 37.1033C77.0658 37.0031 76.861 36.8965 76.6405 36.7851C76.4087 36.6674 76.1914 36.5466 75.9898 36.4255C75.7882 36.3047 75.6137 36.171 75.4645 36.0247C75.3151 35.8784 75.1993 35.7131 75.1136 35.5285C75.028 35.344 74.985 35.1277 74.985 34.8794C74.985 34.574 75.0518 34.3101 75.1852 34.0842C75.3183 33.8584 75.4945 33.6738 75.7105 33.5275C75.9278 33.381 76.1754 33.273 76.4531 33.2013C76.7295 33.1297 77.0134 33.0933 77.3008 33.0933C77.9579 33.0933 78.4372 33.1728 78.7387 33.3317V34.2131C78.3452 33.9394 77.8389 33.8027 77.223 33.8027C77.0516 33.8027 76.8818 33.8201 76.7103 33.8552C76.5405 33.8917 76.3881 33.9506 76.2548 34.0301C76.1216 34.1113 76.0136 34.2161 75.9294 34.3434C75.8452 34.4706 75.804 34.6249 75.804 34.8095C75.804 34.9796 75.8358 35.1277 75.8992 35.2518C75.9628 35.3758 76.0564 35.4887 76.1802 35.5921C76.304 35.6939 76.4563 35.7941 76.6341 35.8897C76.8119 35.9867 77.0182 36.0917 77.25 36.2061C77.4897 36.3253 77.7151 36.4494 77.9293 36.5798C78.1436 36.7103 78.3308 36.8552 78.4912 37.0125C78.6531 37.1716 78.7801 37.3466 78.8753 37.5392C78.9705 37.7315 79.0165 37.9526 79.0165 38.2007C79.0165 38.5301 78.9531 38.8099 78.8245 39.0376C78.6959 39.2666 78.5213 39.4526 78.3038 39.5943C78.0848 39.7374 77.8325 39.8408 77.5483 39.9043C77.2628 39.968 76.9626 39.9999 76.6453 39.9999C76.5405 39.9999 76.4103 39.9919 76.2548 39.9744C76.1008 39.9568 75.9422 39.933 75.7802 39.8997C75.6199 39.8678 75.4675 39.8263 75.3231 39.7786C75.1788 39.7309 75.0628 39.6768 74.9756 39.6181Z" fill="#0A7F2E"/>
<path d="M83.8072 39.8887H80.3486V33.2063H81.1297V39.1809H83.8072V39.8887Z" fill="#0A7F2E"/>
<path d="M90.2709 39.8887H89.4058L88.6996 38.015H85.871L85.2061 39.8887H84.3379L86.8949 33.2063H87.7043L90.2709 39.8887ZM88.4424 37.3119L87.3964 34.4646C87.363 34.3706 87.3282 34.2211 87.2948 34.0175H87.2758C87.2456 34.2069 87.2092 34.3548 87.1694 34.4646L86.1314 37.3119H88.4424Z" fill="#0A7F2E"/>
<path d="M96.0327 39.8887H95.1025L93.9853 38.015C93.8837 37.8416 93.7851 37.6935 93.6883 37.5695C93.5915 37.447 93.4932 37.3468 93.3932 37.2705C93.2916 37.1925 93.1836 37.1352 93.0678 37.1003C92.9519 37.0636 92.8203 37.0462 92.6741 37.0462H92.033V39.8887H91.252V33.2063H93.2424C93.5327 33.2063 93.8027 33.243 94.0487 33.3161C94.2946 33.3893 94.509 33.4991 94.6899 33.6486C94.8725 33.7981 95.0137 33.9843 95.1153 34.2053C95.2185 34.428 95.2692 34.6873 95.2692 34.9863C95.2692 35.2185 95.2343 35.4334 95.1645 35.6274C95.0947 35.8214 94.9963 35.9947 94.8677 36.1458C94.7391 36.2985 94.5836 36.429 94.4026 36.5356C94.22 36.6422 94.0169 36.7266 93.7899 36.7853V36.8029C93.9027 36.8538 93.9995 36.9093 94.0821 36.9731C94.163 37.0382 94.2422 37.1129 94.3154 37.2005C94.39 37.2865 94.4646 37.3851 94.5376 37.4963C94.6106 37.6061 94.6915 37.7334 94.7803 37.8797L96.0327 39.8887ZM92.033 33.9141V36.3384H93.0932C93.2884 36.3384 93.4694 36.3081 93.6343 36.2492C93.8011 36.1905 93.9439 36.1061 94.0645 35.9947C94.1852 35.8851 94.2804 35.7498 94.3486 35.5891C94.417 35.4302 94.4502 35.2504 94.4502 35.0516C94.4502 34.6937 94.336 34.4153 94.1043 34.2149C93.8741 34.0143 93.5392 33.9141 93.1026 33.9141H92.033Z" fill="#0A7F2E"/>
<path d="M97.7293 39.8887H96.9482V33.2063H97.7293V39.8887Z" fill="#0A7F2E"/>
<path d="M104.858 39.8887H103.9L100.468 34.5616C100.381 34.428 100.309 34.2881 100.254 34.1432H100.227C100.251 34.2865 100.263 34.5919 100.263 35.061V39.8887H99.4824V33.2063H100.497L103.835 38.4492C103.974 38.6655 104.065 38.815 104.104 38.8961H104.123C104.092 38.7037 104.076 38.3761 104.076 37.9132V33.2063H104.858V39.8887Z" fill="#0A7F2E"/>
<path d="M107.388 39.8887H106.606V33.2063H107.388V39.8887Z" fill="#0A7F2E"/>
<path d="M116.531 39.8887H115.601L114.483 38.015C114.382 37.8416 114.283 37.6935 114.186 37.5695C114.09 37.447 113.991 37.3468 113.891 37.2705C113.79 37.1925 113.682 37.1352 113.566 37.1003C113.45 37.0636 113.318 37.0462 113.172 37.0462H112.531V39.8887H111.75V33.2063H113.74C114.031 33.2063 114.301 33.243 114.547 33.3161C114.793 33.3893 115.007 33.4991 115.188 33.6486C115.371 33.7981 115.512 33.9843 115.613 34.2053C115.717 34.428 115.767 34.6873 115.767 34.9863C115.767 35.2185 115.732 35.4334 115.663 35.6274C115.593 35.8214 115.494 35.9947 115.366 36.1458C115.237 36.2985 115.082 36.429 114.901 36.5356C114.718 36.6422 114.515 36.7266 114.288 36.7853V36.8029C114.401 36.8538 114.498 36.9093 114.58 36.9731C114.661 37.0382 114.74 37.1129 114.813 37.2005C114.888 37.2865 114.963 37.3851 115.036 37.4963C115.109 37.6061 115.19 37.7334 115.278 37.8797L116.531 39.8887ZM112.531 33.9141V36.3384H113.591C113.786 36.3384 113.967 36.3081 114.132 36.2492C114.299 36.1905 114.442 36.1061 114.563 35.9947C114.683 35.8851 114.778 35.7498 114.847 35.5891C114.915 35.4302 114.948 35.2504 114.948 35.0516C114.948 34.6937 114.834 34.4153 114.602 34.2149C114.372 34.0143 114.037 33.9141 113.601 33.9141H112.531Z" fill="#0A7F2E"/>
<path d="M118.228 39.8887H117.447V33.2063H118.228V39.8887Z" fill="#0A7F2E"/>
<path d="M124.939 33.2063L122.469 39.8887H121.609L119.191 33.2063H120.061L121.907 38.5049C121.966 38.6751 122.01 38.8723 122.042 39.0965H122.059C122.085 38.9106 122.136 38.71 122.213 38.4953L124.097 33.2063H124.939Z" fill="#0A7F2E"/>
<path d="M128.352 39.9999C127.406 39.9999 126.649 39.6881 126.08 39.063C125.512 38.4394 125.227 37.6265 125.227 36.6261C125.227 35.5508 125.517 34.6935 126.096 34.054C126.676 33.4145 127.466 33.0933 128.464 33.0933C129.385 33.0933 130.126 33.4049 130.688 34.0253C131.252 34.6472 131.532 35.46 131.532 36.4638C131.532 37.5534 131.244 38.4155 130.667 39.0502C130.091 39.6832 129.32 39.9999 128.352 39.9999ZM128.407 33.8027C127.707 33.8027 127.139 34.0556 126.701 34.5614C126.265 35.0688 126.045 35.7337 126.045 36.556C126.045 37.38 126.258 38.0418 126.685 38.5444C127.11 39.0454 127.668 39.2967 128.352 39.2967C129.083 39.2967 129.66 39.0582 130.082 38.5794C130.504 38.1005 130.713 37.4309 130.713 36.5704C130.713 35.6877 130.51 35.0067 130.101 34.5247C129.691 34.0428 129.126 33.8027 128.407 33.8027Z" fill="#0A7F2E"/>
<path d="M134.504 37.4931C134.504 38.2853 134.337 38.9009 134.002 39.3416C133.667 39.7805 133.218 40.0001 132.658 40.0001C132.398 40.0001 132.183 39.9634 132.017 39.8887V39.1155C132.183 39.2366 132.401 39.2969 132.667 39.2969C133.371 39.2969 133.723 38.6989 133.723 37.5027V33.2063H134.504V37.4931Z" fill="#0A7F2E"/>
<path d="M139.655 39.8887H136.196V33.2063H136.977V39.1809H139.655V39.8887Z" fill="#0A7F2E"/>
<path d="M146.12 39.8887H145.254L144.548 38.015H141.72L141.055 39.8887H140.187L142.743 33.2063H143.553L146.12 39.8887ZM144.291 37.3119L143.245 34.4646C143.212 34.3706 143.177 34.2211 143.143 34.0175H143.124C143.094 34.2069 143.058 34.3548 143.018 34.4646L141.98 37.3119H144.291Z" fill="#0A7F2E"/>
<path d="M152.476 39.8887H151.518L148.086 34.5616C147.999 34.428 147.928 34.2881 147.872 34.1432H147.845C147.869 34.2865 147.882 34.5919 147.882 35.061V39.8887H147.101V33.2063H148.115L151.453 38.4492C151.592 38.6655 151.683 38.815 151.723 38.8961H151.742C151.71 38.7037 151.694 38.3761 151.694 37.9132V33.2063H152.476V39.8887Z" fill="#0A7F2E"/>
<path d="M158.167 33.9141H156.242V39.8887H155.461V33.9141H153.54V33.2063H158.167V33.9141Z" fill="#0A7F2E"/>
<path d="M159.995 39.8887H159.214V33.2063H159.995V39.8887Z" fill="#0A7F2E"/>
<path d="M166.529 39.8887H165.599L164.482 38.015C164.38 37.8416 164.282 37.6935 164.185 37.5695C164.088 37.447 163.99 37.3468 163.89 37.2705C163.788 37.1925 163.68 37.1352 163.564 37.1003C163.448 37.0636 163.317 37.0462 163.171 37.0462H162.53V39.8887H161.749V33.2063H163.739C164.029 33.2063 164.299 33.243 164.545 33.3161C164.791 33.3893 165.006 33.4991 165.187 33.6486C165.369 33.7981 165.51 33.9843 165.612 34.2053C165.715 34.428 165.766 34.6873 165.766 34.9863C165.766 35.2185 165.731 35.4334 165.661 35.6274C165.591 35.8214 165.493 35.9947 165.364 36.1458C165.236 36.2985 165.08 36.429 164.899 36.5356C164.717 36.6422 164.513 36.7266 164.287 36.7853V36.8029C164.399 36.8538 164.496 36.9093 164.579 36.9731C164.66 37.0382 164.739 37.1129 164.812 37.2005C164.887 37.2865 164.961 37.3851 165.034 37.4963C165.107 37.6061 165.188 37.7334 165.277 37.8797L166.529 39.8887ZM162.53 33.9141V36.3384H163.59C163.785 36.3384 163.966 36.3081 164.131 36.2492C164.298 36.1905 164.44 36.1061 164.561 35.9947C164.682 35.8851 164.777 35.7498 164.845 35.5891C164.914 35.4302 164.947 35.2504 164.947 35.0516C164.947 34.6937 164.833 34.4153 164.601 34.2149C164.371 34.0143 164.036 33.9141 163.599 33.9141H162.53Z" fill="#0A7F2E"/>
<path d="M168.226 39.8887H167.445V33.2063H168.226V39.8887Z" fill="#0A7F2E"/>
<path d="M169.668 39.6181V38.6955C169.774 38.7893 169.901 38.872 170.047 38.9468C170.195 39.0215 170.35 39.0853 170.512 39.1362C170.676 39.1871 170.839 39.2267 171.003 39.2554C171.168 39.2825 171.32 39.2967 171.458 39.2967C171.939 39.2967 172.298 39.2077 172.536 39.0279C172.772 38.8498 172.892 38.5921 172.892 38.258C172.892 38.0766 172.852 37.9209 172.772 37.7873C172.693 37.6536 172.584 37.5311 172.446 37.4213C172.306 37.3101 172.141 37.2051 171.95 37.1033C171.758 37.0031 171.553 36.8965 171.333 36.7851C171.101 36.6674 170.884 36.5466 170.682 36.4255C170.481 36.3047 170.306 36.171 170.157 36.0247C170.008 35.8784 169.892 35.7131 169.806 35.5285C169.72 35.344 169.677 35.1277 169.677 34.8794C169.677 34.574 169.744 34.3101 169.878 34.0842C170.011 33.8584 170.187 33.6738 170.403 33.5275C170.62 33.381 170.868 33.273 171.146 33.2013C171.422 33.1297 171.706 33.0933 171.993 33.0933C172.65 33.0933 173.13 33.1728 173.431 33.3317V34.2131C173.038 33.9394 172.531 33.8027 171.915 33.8027C171.744 33.8027 171.574 33.8201 171.403 33.8552C171.233 33.8917 171.081 33.9506 170.947 34.0301C170.814 34.1113 170.706 34.2161 170.622 34.3434C170.538 34.4706 170.496 34.6249 170.496 34.8095C170.496 34.9796 170.528 35.1277 170.592 35.2518C170.655 35.3758 170.749 35.4887 170.873 35.5921C170.996 35.6939 171.149 35.7941 171.326 35.8897C171.504 35.9867 171.711 36.0917 171.942 36.2061C172.182 36.3253 172.407 36.4494 172.622 36.5798C172.836 36.7103 173.023 36.8552 173.184 37.0125C173.346 37.1716 173.473 37.3466 173.568 37.5392C173.663 37.7315 173.709 37.9526 173.709 38.2007C173.709 38.5301 173.645 38.8099 173.517 39.0376C173.388 39.2666 173.214 39.4526 172.996 39.5943C172.777 39.7374 172.525 39.8408 172.241 39.9043C171.955 39.968 171.655 39.9999 171.338 39.9999C171.233 39.9999 171.103 39.9919 170.947 39.9744C170.793 39.9568 170.635 39.933 170.473 39.8997C170.312 39.8678 170.16 39.8263 170.016 39.7786C169.871 39.7309 169.755 39.6768 169.668 39.6181Z" fill="#0A7F2E"/>
<path d="M180.053 39.8887H179.272V36.841H175.821V39.8887H175.04V33.2063H175.821V36.138H179.272V33.2063H180.053V39.8887Z" fill="#0A7F2E"/>
<path d="M191.209 39.8887H190.433V35.4063C190.433 35.0516 190.453 34.6189 190.498 34.1051H190.479C190.404 34.4073 190.337 34.6219 190.279 34.7524L188.001 39.8887H187.619L185.346 34.7907C185.28 34.6412 185.214 34.4137 185.146 34.1051H185.127C185.152 34.3722 185.163 34.8097 185.163 35.4141V39.8887H184.411V33.2063H185.442L187.488 37.8655C187.647 38.2234 187.749 38.4905 187.796 38.6671H187.823C187.956 38.3013 188.064 38.0276 188.144 37.8478L190.233 33.2063H191.209V39.8887Z" fill="#0A7F2E"/>
<path d="M198.124 39.8887H197.259L196.553 38.015H193.725L193.06 39.8887H192.191L194.748 33.2063H195.558L198.124 39.8887ZM196.296 37.3119L195.25 34.4646C195.217 34.3706 195.182 34.2211 195.148 34.0175H195.129C195.099 34.2069 195.063 34.3548 195.023 34.4646L193.985 37.3119H196.296Z" fill="#0A7F2E"/>
<path d="M203.886 39.8887H202.956L201.838 38.015C201.737 37.8416 201.638 37.6935 201.541 37.5695C201.445 37.447 201.346 37.3468 201.246 37.2705C201.145 37.1925 201.037 37.1352 200.921 37.1003C200.805 37.0636 200.673 37.0462 200.527 37.0462H199.886V39.8887H199.105V33.2063H201.095C201.386 33.2063 201.656 33.243 201.902 33.3161C202.148 33.3893 202.362 33.4991 202.543 33.6486C202.726 33.7981 202.867 33.9843 202.968 34.2053C203.072 34.428 203.122 34.6873 203.122 34.9863C203.122 35.2185 203.087 35.4334 203.018 35.6274C202.948 35.8214 202.849 35.9947 202.721 36.1458C202.592 36.2985 202.437 36.429 202.256 36.5356C202.073 36.6422 201.87 36.7266 201.643 36.7853V36.8029C201.756 36.8538 201.853 36.9093 201.935 36.9731C202.016 37.0382 202.095 37.1129 202.168 37.2005C202.243 37.2865 202.318 37.3851 202.391 37.4963C202.464 37.6061 202.545 37.7334 202.633 37.8797L203.886 39.8887ZM199.886 33.9141V36.3384H200.946C201.141 36.3384 201.322 36.3081 201.487 36.2492C201.654 36.1905 201.797 36.1061 201.917 35.9947C202.038 35.8851 202.133 35.7498 202.202 35.5891C202.27 35.4302 202.303 35.2504 202.303 35.0516C202.303 34.6937 202.189 34.4153 201.957 34.2149C201.727 34.0143 201.392 33.9141 200.956 33.9141H199.886Z" fill="#0A7F2E"/>
<path d="M209.443 39.8887H208.354L205.778 36.8314C205.683 36.7169 205.622 36.639 205.602 36.5993H205.583V39.8887H204.802V33.2063H205.583V36.3464H205.602C205.645 36.2779 205.703 36.2031 205.778 36.119L208.27 33.2063H209.243L206.383 36.4115L209.443 39.8887Z" fill="#0A7F2E"/>
<path d="M215.487 39.8887H214.622L213.915 38.015H211.087L210.422 39.8887H209.554L212.111 33.2063H212.92L215.487 39.8887ZM213.658 37.3119L212.612 34.4646C212.579 34.3706 212.544 34.2211 212.511 34.0175H212.492C212.461 34.2069 212.425 34.3548 212.385 34.4646L211.347 37.3119H213.658Z" fill="#0A7F2E"/>
<path d="M221.099 33.3925L217.193 39.1809H221.005V39.8887H216.026V39.6693L219.899 33.9141H216.338V33.2063H221.099V33.3925Z" fill="#0A7F2E"/>
<path d="M222.959 39.8887H222.178V33.2063H222.959V39.8887Z" fill="#0A7F2E"/>
<path d="M232.14 39.8887V33.2063H233.981C236.33 33.2063 237.506 34.2913 237.506 36.464C237.506 37.4947 237.179 38.3236 236.527 38.9502C235.874 39.5753 235.001 39.8887 233.906 39.8887H232.14ZM232.921 33.9141V39.1809H233.916C234.79 39.1809 235.47 38.9454 235.957 38.4763C236.444 38.0069 236.687 37.342 236.687 36.4815C236.687 34.77 235.779 33.9141 233.962 33.9141H232.921Z" fill="#0A7F2E"/>
<path d="M243.694 37.1861C243.694 39.0616 242.85 40.0001 241.159 40.0001C239.542 40.0001 238.732 39.0981 238.732 37.2927V33.2063H239.513V37.2418C239.513 38.6113 240.091 39.2969 241.243 39.2969C242.356 39.2969 242.913 38.6352 242.913 37.3119V33.2063H243.694V37.1861Z" fill="#0A7F2E"/>
<path d="M250 39.8887H248.911L246.335 36.8314C246.24 36.7169 246.18 36.639 246.159 36.5993H246.14V39.8887H245.359V33.2063H246.14V36.3464H246.159C246.202 36.2779 246.261 36.2031 246.335 36.119L248.827 33.2063H249.8L246.94 36.4115L250 39.8887Z" fill="#0A7F2E"/>
</g>
<defs>
<clipPath id="clip0_1_18">
<rect width="250" height="40" fill="white"/>
</clipPath>
</defs>
</svg>
